<svg width="64" height="15" viewBox="0 0 64 15" fill="none" xmlns="http://www.w3.org/2000/svg">
<path d="M1.44479 9.88053C1.07576 9.88034 0.720888 9.74306 0.453384 9.49702C0.185881 9.25098 0.0261594 8.91496 0.0071728 8.55827L0.0071728 12.6711C0.00302858 12.8564 0.0371586 13.0406 0.107561 13.213C0.177963 13.3854 0.28322 13.5424 0.417157 13.6748C0.551094 13.8073 0.711015 13.9126 0.887538 13.9844C1.06406 14.0563 1.25363 14.0933 1.44513 14.0933C1.63663 14.0933 1.8262 14.0563 2.00272 13.9844C2.17925 13.9126 2.33917 13.8073 2.4731 13.6748C2.60704 13.5424 2.7123 13.3854 2.7827 13.213C2.8531 13.0406 2.88723 12.8564 2.88309 12.6711L2.88309 8.55762C2.86394 8.91442 2.7041 9.25052 2.4365 9.49665C2.16891 9.74278 1.81395 9.88018 1.44479 9.88053V9.88053Z" fill="white"/>
<path d="M1.44166 9.88042C2.23787 9.88042 2.88333 9.25573 2.88333 8.48513C2.88333 7.71454 2.23787 7.08984 1.44166 7.08984C0.645455 7.08984 0 7.71454 0 8.48513C0 9.25573 0.645455 9.88042 1.44166 9.88042Z" fill="white"/>
<path d="M13.8021 2.92017C13.5428 2.9208 13.288 2.85363 13.0648 2.72576C12.8417 2.5979 12.6583 2.41407 12.5341 2.1937C12.4099 1.97333 12.3495 1.72459 12.3592 1.47375C12.369 1.2229 12.4485 0.979264 12.5895 0.768555L7.61914 7.4842L8.72868 8.98381C8.92073 9.20748 9.03574 9.48366 9.0576 9.77371C9.07946 10.0638 9.0071 10.3532 8.85062 10.6014L12.3625 5.85354V12.5953C12.3804 12.2378 12.5397 11.9007 12.8074 11.6539C13.0751 11.407 13.4307 11.2693 13.8004 11.2693C14.1702 11.2693 14.5258 11.407 14.7935 11.6539C15.0612 11.9007 15.2205 12.2378 15.2384 12.5953V1.59725C15.2196 1.95383 15.0601 2.28983 14.7929 2.53597C14.5257 2.78212 14.171 2.91963 13.8021 2.92017Z" fill="white"/>
<path d="M7.62537 8.48364C7.83741 8.48344 8.04687 8.52857 8.23879 8.61581C8.43071 8.70305 8.60035 8.83024 8.73559 8.98829L7.62605 7.48868L2.61391 0.712398C2.50398 0.5638 2.3649 0.437612 2.20459 0.341038C2.04428 0.244463 1.86588 0.179394 1.67959 0.149546C1.4933 0.119698 1.30275 0.125654 1.11884 0.167076C0.934923 0.208498 0.761239 0.284574 0.607703 0.39096C0.454166 0.497346 0.323784 0.631958 0.224 0.787112C0.124215 0.942266 0.0569839 1.11492 0.0261436 1.29522C-0.00469676 1.47552 0.00145805 1.65994 0.0442566 1.83794C0.0870552 2.01594 0.165659 2.18403 0.275581 2.33263L6.39457 10.6053C6.40265 10.6183 6.41141 10.6307 6.42017 10.6431C6.2774 10.4328 6.19611 10.189 6.18493 9.93758C6.17374 9.68618 6.23308 9.43653 6.35665 9.21513C6.48022 8.99372 6.6634 8.80882 6.88677 8.68004C7.11015 8.55125 7.36537 8.48339 7.62537 8.48364V8.48364Z" fill="white"/>
<path d="M45.19 1.88541C43.8615 0.737227 42.0567 0.128906 39.9717 0.128906L35.6602 0.128906C36.0361 0.136783 36.394 0.286868 36.657 0.547005C36.92 0.807143 37.0673 1.15664 37.0673 1.52061C37.0673 1.88458 36.92 2.23408 36.657 2.49422C36.394 2.75435 36.0361 2.90444 35.6602 2.91231L39.9717 2.91231C41.3392 2.91231 42.4818 3.27483 43.2727 3.96074C44.1094 4.68251 44.5311 5.73941 44.5311 7.10536C44.5311 8.47131 44.1074 9.51778 43.2713 10.235C42.4764 10.917 41.3352 11.2782 39.9703 11.2782H37.1011V12.5222V12.5255C37.1059 12.5718 37.1086 12.6181 37.1086 12.6657C37.1086 13.0358 36.9567 13.3907 36.6863 13.6525C36.416 13.9143 36.0493 14.0614 35.6669 14.0616H39.9717C42.0506 14.0616 43.852 13.4585 45.1805 12.3175C46.6384 11.0663 47.4084 9.26349 47.4084 7.10145C47.4084 4.9394 46.6417 3.13856 45.19 1.88541Z" fill="white"/>
<path d="M37.0986 12.523V5.70956C37.0904 5.34567 36.9354 4.99935 36.6666 4.74478C36.3978 4.49021 36.0367 4.34766 35.6606 4.34766C35.2845 4.34766 34.9234 4.49021 34.6547 4.74478C34.3859 4.99935 34.2308 5.34567 34.2227 5.70956V12.6665C34.2221 12.3085 34.3637 11.9639 34.6182 11.7042C34.8728 11.4444 35.2207 11.2893 35.5901 11.2708C35.9595 11.2524 36.3221 11.3721 36.6029 11.6052C36.8837 11.8383 37.0611 12.1669 37.0986 12.523V12.523Z" fill="white"/>
<path d="M54.9204 12.8185C54.9204 12.4484 55.0723 12.0935 55.3427 11.8318C55.613 11.5702 55.9797 11.4232 56.3621 11.4232V11.4232C55.4795 11.4212 54.6172 11.1663 53.8841 10.6905C53.151 10.2148 52.5799 9.53964 52.2428 8.75016C51.9057 7.96067 51.8177 7.09225 51.9899 6.25443C52.1622 5.41661 52.587 4.64693 53.2106 4.04248C53.4786 3.77955 53.6277 3.42435 53.6252 3.05502C53.6226 2.68569 53.4685 2.33248 53.1968 2.0731C52.9252 1.81371 52.5582 1.6694 52.1765 1.67191C51.7949 1.67441 51.43 1.82353 51.162 2.08646C50.1489 3.07192 49.4567 4.3233 49.1711 5.68567C48.8854 7.04803 49.0189 8.46156 49.5549 9.75126C50.091 11.041 51.0061 12.1502 52.1869 12.9416C53.3677 13.7331 54.7624 14.172 56.1984 14.204H56.2044C55.8518 14.1663 55.5259 14.0041 55.289 13.7485C55.0522 13.4929 54.9209 13.1618 54.9204 12.8185V12.8185Z" fill="white"/>
<path d="M56.3606 2.79058C57.1568 2.79058 57.8023 2.16589 57.8023 1.39529C57.8023 0.624693 57.1568 0 56.3606 0C55.5644 0 54.9189 0.624693 54.9189 1.39529C54.9189 2.16589 55.5644 2.79058 56.3606 2.79058Z" fill="white"/>
<path d="M7.62233 11.2769C8.41854 11.2769 9.06399 10.6522 9.06399 9.88162C9.06399 9.11102 8.41854 8.48633 7.62233 8.48633C6.82612 8.48633 6.18066 9.11102 6.18066 9.88162C6.18066 10.6522 6.82612 11.2769 7.62233 11.2769Z" fill="white"/>
<path d="M13.804 14.064C14.6002 14.064 15.2456 13.4393 15.2456 12.6687C15.2456 11.8981 14.6002 11.2734 13.804 11.2734C13.0078 11.2734 12.3623 11.8981 12.3623 12.6687C12.3623 13.4393 13.0078 14.064 13.804 14.064Z" fill="white"/>
<path d="M13.804 2.92144C14.6002 2.92144 15.2456 2.29675 15.2456 1.52615C15.2456 0.755552 14.6002 0.130859 13.804 0.130859C13.0078 0.130859 12.3623 0.755552 12.3623 1.52615C12.3623 2.29675 13.0078 2.92144 13.804 2.92144Z" fill="white"/>
<path d="M35.6643 14.0611C36.4605 14.0611 37.106 13.4364 37.106 12.6658C37.106 11.8952 36.4605 11.2705 35.6643 11.2705C34.8681 11.2705 34.2227 11.8952 34.2227 12.6658C34.2227 13.4364 34.8681 14.0611 35.6643 14.0611Z" fill="white"/>
<path d="M35.6603 2.91557C36.4543 2.91557 37.0979 2.29263 37.0979 1.52419C37.0979 0.755754 36.4543 0.132813 35.6603 0.132813C34.8663 0.132813 34.2227 0.755754 34.2227 1.52419C34.2227 2.29263 34.8663 2.91557 35.6603 2.91557Z" fill="white"/>
<path d="M56.4948 0.00683594C56.8556 0.0408604 57.1899 0.205264 57.4311 0.467262C57.6722 0.72926 57.8024 1.0696 57.7958 1.42041C57.7892 1.77122 57.6462 2.10672 57.3953 2.36001C57.1444 2.61329 56.8041 2.76575 56.4422 2.78698V2.78698C57.6139 2.81418 58.7274 3.28644 59.5422 4.10172C60.357 4.91701 60.8077 6.00984 60.7968 7.14407C60.7859 8.2783 60.3144 9.36285 59.4841 10.1633C58.6537 10.9638 57.5313 11.416 56.3594 11.4221C56.7303 11.4187 57.0883 11.5538 57.3589 11.7994C57.6296 12.0449 57.792 12.3819 57.8125 12.7403C57.8329 13.0988 57.7099 13.4511 57.4689 13.724C57.2278 13.9969 56.8874 14.1693 56.5184 14.2055C58.4366 14.1629 60.2612 13.3946 61.6012 12.0655C62.9412 10.7363 63.6899 8.95204 63.6868 7.09502C63.6837 5.238 62.9291 3.45604 61.5847 2.13106C60.2403 0.80608 58.4132 0.0435271 56.4948 0.00683594V0.00683594Z" fill="white"/>
<path d="M56.3596 14.2144C57.1558 14.2144 57.8013 13.5897 57.8013 12.8191C57.8013 12.0485 57.1558 11.4238 56.3596 11.4238C55.5634 11.4238 54.918 12.0485 54.918 12.8191C54.918 13.5897 55.5634 14.2144 56.3596 14.2144Z" fill="white"/>
<path d="M23.4312 12.8192C23.4312 12.4491 23.5831 12.0942 23.8535 11.8325C24.1239 11.5709 24.4905 11.4239 24.8729 11.4239V11.4239C23.9901 11.4222 23.1276 11.1674 22.3943 10.6918C21.661 10.2161 21.0897 9.54087 20.7526 8.75125C20.4154 7.96164 20.3275 7.09306 20.4999 6.25513C20.6724 5.41721 21.0974 4.64751 21.7214 4.04317C21.9895 3.77998 22.1385 3.42454 22.1357 3.05502C22.1329 2.68551 21.9786 2.3322 21.7066 2.07281C21.4347 1.81343 21.0674 1.66922 20.6856 1.67191C20.3038 1.6746 19.9388 1.82397 19.6708 2.08716C18.6577 3.07262 17.9655 4.324 17.6799 5.68636C17.3942 7.04873 17.5277 8.46226 18.0637 9.75196C18.5998 11.0417 19.5148 12.1509 20.6957 12.9423C21.8765 13.7338 23.2712 14.1727 24.7072 14.2047H24.7139C24.3615 14.1668 24.0358 14.0046 23.7992 13.749C23.5626 13.4934 23.4316 13.1623 23.4312 12.8192V12.8192Z" fill="white"/>
<path d="M24.8684 2.79058C25.6646 2.79058 26.3101 2.16589 26.3101 1.39529C26.3101 0.624693 25.6646 0 24.8684 0C24.0722 0 23.4268 0.624693 23.4268 1.39529C23.4268 2.16589 24.0722 2.79058 24.8684 2.79058Z" fill="white"/>
<path d="M25.0104 0.00683594C25.3712 0.0408604 25.7055 0.205264 25.9467 0.467262C26.1878 0.72926 26.3181 1.0696 26.3114 1.42041C26.3048 1.77122 26.1618 2.10672 25.9109 2.36001C25.66 2.61329 25.3197 2.76575 24.9579 2.78698V2.78698C26.1295 2.81418 27.243 3.28644 28.0579 4.10172C28.8727 4.91701 29.3233 6.00984 29.3125 7.14407C29.3016 8.2783 28.83 9.36285 27.9997 10.1633C27.1694 10.9638 26.047 11.416 24.875 11.4221C25.2428 11.423 25.5963 11.5599 25.8632 11.8048C26.1301 12.0496 26.2902 12.384 26.3108 12.7394C26.3314 13.0948 26.2108 13.4443 25.9739 13.7165C25.7369 13.9887 25.4014 14.1629 25.036 14.2036C26.9467 14.1503 28.7606 13.3775 30.0914 12.0495C31.4223 10.7215 32.1651 8.9432 32.1618 7.09315C32.1584 5.24311 31.4092 3.46738 30.0736 2.14388C28.7379 0.820386 26.9213 0.0536408 25.0104 0.00683594V0.00683594Z" fill="white"/>
<path d="M24.8694 14.2144C25.6656 14.2144 26.3111 13.5897 26.3111 12.8191C26.3111 12.0485 25.6656 11.4238 24.8694 11.4238C24.0732 11.4238 23.4277 12.0485 23.4277 12.8191C23.4277 13.5897 24.0732 14.2144 24.8694 14.2144Z" fill="white"/>
</svg>
