<svg xmlns="http://www.w3.org/2000/svg" width="100%" height="100%" viewBox="0 0 193 58" fill="none" preserveAspectRatio="xMidYMid meet">
  <!-- Background with padding -->
  <rect width="193" height="58" fill="transparent"/>
  <!-- Logo centered with padding -->
  <g transform="translate(15, 15)">
    <path d="M5.40886 26.7553H0V1.46959H8.16402C12.9475 1.46959 15.3139 3.85367 15.3139 8.71213V10.5905C15.3139 15.3948 12.9475 17.7608 8.16402 17.7608H5.40886V26.7553ZM5.40886 5.94876V13.2816H7.69073C9.27959 13.2816 10.0402 12.4689 10.0402 10.7531V8.54958C10.0402 6.77959 9.27959 5.94876 7.69073 5.94876H5.40886ZM19.0122 26.7553H13.7724L19.3165 1.46959H26.3141L31.9766 26.7553H26.2466L25.6043 23.1792H19.6545L19.0122 26.7553ZM21.6321 12.7759L20.4659 19.007H24.793L23.6436 12.7759C23.2886 10.8434 23.2627 8.72176 23.0599 6.57248H22.1821C22.013 8.72176 22.004 10.8434 21.6321 12.7759ZM38.7525 26.7553H33.3438V1.46959H38.7525V26.7553ZM48.2946 27.2249C43.0885 27.2249 40.4517 24.5338 40.3503 18.8084L45.455 18.122C45.5561 21.6982 46.469 22.9083 48.5312 22.9083C50.1031 22.9083 50.9651 21.9871 50.9651 20.5964C50.9651 19.1154 50.1199 18.1582 47.7537 16.6952L45.3872 15.2503C42.9871 13.7693 40.7051 11.9812 40.7391 7.91745C40.7558 3.60081 43.5954 1 48.1931 1C53.2808 1 55.7147 3.60081 55.7824 9.00111L50.999 9.59715C50.965 6.47256 50.0694 5.31663 48.1084 5.31663C46.7563 5.31663 45.8604 6.14746 45.8604 7.3756C45.8604 8.56765 46.4013 9.41653 48.9369 10.9156L51.3371 12.3424C53.7372 13.7873 56.2895 15.4128 56.2895 19.8378C56.2895 24.4796 53.3145 27.2249 48.2946 27.2249ZM61.6901 26.7553H56.4503L61.9944 1.46959H68.9923L74.6546 26.7553H68.9246L68.2823 23.1792H62.3324L61.6901 26.7553ZM64.3101 12.7759L63.1439 19.007H67.4711L66.3216 12.7759C65.9665 10.8434 65.9407 8.72176 65.7378 6.57248H64.8602C64.691 8.72176 64.6822 10.8434 64.3101 12.7759ZM80.985 26.7553H75.7452V1.46959H81.7965L86.1574 13.4442C86.5968 14.6362 87.0193 16.3785 87.5265 18.4014L88.3874 18.3472C88.1675 15.7283 87.4925 13.1913 87.4925 11.1685V1.46959H92.7493V26.7553H86.7657L82.3541 14.8529C81.8977 13.6067 81.4922 11.9367 80.968 9.60676L80.0904 9.66095C80.31 12.1353 80.985 15.178 80.985 17.4538V26.7553ZM103.052 27.2429C97.3219 27.2429 94.516 23.6668 94.516 16.4243V11.8367C94.516 4.57611 97.3219 1 103.052 1C108.765 1 111.588 4.57611 111.588 11.8367V16.4243C111.588 23.6668 108.765 27.2429 103.052 27.2429ZM103.052 22.6554C105.097 22.6554 106.094 21.066 106.094 17.7789V10.6808C106.094 7.23112 105.097 5.56949 103.052 5.56949C100.99 5.56949 99.9924 7.23112 99.9924 10.6808V17.7789C99.9924 21.066 100.99 22.6554 103.052 22.6554ZM120.707 27.2249C115.501 27.2249 112.864 24.5338 112.763 18.8084L117.867 18.122C117.969 21.6982 118.882 22.9083 120.944 22.9083C122.516 22.9083 123.378 21.9871 123.378 20.5964C123.378 19.1154 122.533 18.1582 120.166 16.6952L117.8 15.2503C115.4 13.7693 113.118 11.9812 113.152 7.91745C113.169 3.60081 116.008 1 120.606 1C125.693 1 128.127 3.60081 128.195 9.00111L123.412 9.59715C123.378 6.47256 122.482 5.31663 120.521 5.31663C119.169 5.31663 118.273 6.14746 118.273 7.3756C118.273 8.56765 118.814 9.41653 121.349 10.9156L123.75 12.3424C126.15 13.7873 128.702 15.4128 128.702 19.8378C128.702 24.4796 125.727 27.2249 120.707 27.2249Z" fill="white"/>
    <path fill-rule="evenodd" clip-rule="evenodd" d="M138.231 0.538589V27.2909H143.747V17.0864H149.538V22.6024H160.57V6.05454H149.538V0.538589H138.231ZM149.538 11.5705H155.054V17.0864H149.538V11.5705ZM149.538 11.5705V6.05454H143.747V11.5705H149.538Z" fill="#E1FE03"/>
  </g>
</svg>
